<?xml version="1.0" encoding="utf-8"?>
<!-- Generator: Adobe Illustrator 18.1.1, SVG Export Plug-In . SVG Version: 6.00 Build 0)  -->
<svg version="1.1" id="Слой_1" xmlns="http://www.w3.org/2000/svg" xmlns:xlink="http://www.w3.org/1999/xlink" x="0px" y="0px"
	 viewBox="0 0 270 270" enable-background="new 0 0 270 270" xml:space="preserve">
<g>
	<polygon fill-rule="evenodd" clip-rule="evenodd" fill="#58595B" points="98.3,85.6 89.9,85.6 89.9,82.3 84.2,82.3 84.2,85.6 
		75.7,85.6 75.7,88.9 98.3,88.9 	"/>
	<polygon fill-rule="evenodd" clip-rule="evenodd" fill="#58595B" points="213.2,85.5 201.2,85.5 201.2,81.4 195.5,81.4 195.5,85.5 
		183.5,85.5 183.5,88.8 213.2,88.8 	"/>
	<path fill-rule="evenodd" clip-rule="evenodd" fill="#58595B" d="M145.4,125.3c-17.9,0-32.5,14.6-32.5,32.5
		c0,17.9,14.6,32.5,32.5,32.5s32.5-14.6,32.5-32.5C177.9,139.9,163.3,125.3,145.4,125.3z M145.4,180.9c-12.7,0-23.1-10.4-23.1-23.1
		c0-12.7,10.4-23.1,23.1-23.1c12.7,0,23.1,10.4,23.1,23.1C168.5,170.5,158.1,180.9,145.4,180.9z"/>
	<path fill-rule="evenodd" clip-rule="evenodd" fill="#58595B" d="M202.4,124.5l0.1-22H84.1v22.1l24.7,0l0,0.4l0.9,16.7
		c6.2-13.9,19.9-23.6,35.9-23.6c16.7,0,31,10.6,36.7,25.6l1.4-19.2L202.4,124.5z M112.1,118.8H89.7v-11.2h22.4V118.8z M169.5,116
		c-1.8,0-3.3-1.5-3.3-3.3c0-1.8,1.5-3.3,3.3-3.3c1.8,0,3.3,1.5,3.3,3.3C172.8,114.5,171.3,116,169.5,116z M175.9,118.5v-11.2h22.4
		v11.2H175.9z"/>
	<path fill-rule="evenodd" clip-rule="evenodd" fill="#58595B" d="M213.2,93.1l0-3.4h0v-0.1h-29.7v0.1h0l0,3.2h-14.3V77.7
		c0-1.7-2.4-3.1-5.3-3.1h-43.3c-2.9,0-5.3,1.4-5.3,3.1v15.2h-14.6l-2.6-3.1H75.5L72.9,93L68,93.2V190l9.8,0.6h33.6v0h0.9v0h0.6
		c8.2,8.7,19.8,14.1,32.6,14.1c12.9,0,24.4-5.4,32.6-14.1h0.7l0,0h0.9v0h27.5l9.7-0.4V93.3L213.2,93.1z M123,81.2h38.5v11.7H123
		V81.2z M145.7,198.2c-21.8,0-39.4-17.9-39.4-40.1c0-5.1,1-10,2.7-14.5l-1-18.2l-24.8,0v-23.9h120.3l-0.2,23.8l-18.6,0l-1.5,20.4
		c1.2,3.9,1.9,8,1.9,12.4C185.1,180.3,167.4,198.2,145.7,198.2z M212.3,181.3h-21.4v-9.6h21.4V181.3z M212.5,167.3h-21.4v-7h21.4
		V167.3z"/>
</g>
</svg>
