<?xml version="1.0" encoding="utf-8"?>
<!-- Generator: Adobe Illustrator 18.1.1, SVG Export Plug-In . SVG Version: 6.00 Build 0)  -->
<svg version="1.1" id="Слой_1" xmlns="http://www.w3.org/2000/svg" xmlns:xlink="http://www.w3.org/1999/xlink" x="0px" y="0px"
	 viewBox="0 0 270 270" enable-background="new 0 0 270 270" xml:space="preserve">
<g>
	<path fill="#58595B" d="M60.6,105.7v74.6c0,6.6,5.4,12,12,12h46.2c7,4.6,15.4,7.3,24.3,7.3c9,0,17.3-2.7,24.3-7.3H199
		c6.6,0,12-5.4,12-12v-74.6H60.6z M193.5,108.9c2.1,0,3.8,1.7,3.8,3.8c0,2.1-1.7,3.8-3.8,3.8c-2.1,0-3.8-1.7-3.8-3.8
		C189.7,110.6,191.4,108.9,193.5,108.9z M87.9,118.6c0,3.5,0,61,0,61h-7.7c0,0,0-58.2,0-63c0-4.8,9.7-8.3,11.5-6.7
		C93.4,111.6,87.9,115.1,87.9,118.6z M142.9,188.6c-21.5,0-39-17.4-39-39c0-21.5,17.4-39,39-39c21.5,0,39,17.4,39,39
		C181.9,171.1,164.4,188.6,142.9,188.6z M203.1,178.2h-16.8V169h16.8V178.2z"/>
	<path fill="#58595B" d="M199,93.5c0,0-0.3,0-0.7,0v-9.8h-25v9.8c-6.1-0.7-11-14.8-11-14.8H123c0,0-5.4,14.9-11.5,14.9
		c0,0-0.1,0-0.1,0v-9.3h-25v9.3c-7.6,0-13.8,0-13.8,0c-5.9,0-10.8,4.3-11.8,9.9h149.9C209.8,97.8,204.9,93.5,199,93.5z M158.7,95.3
		h-29.8V84.1h29.8V95.3z"/>
	<path fill="#58595B" d="M143,129.3c-11.4,0-20.6,9.2-20.6,20.6c0,11.4,9.2,20.6,20.6,20.6c11.4,0,20.6-9.2,20.6-20.6
		C163.6,138.6,154.4,129.3,143,129.3z"/>
	<path fill="#58595B" d="M142.9,121.8c-15.3,0-27.8,12.4-27.8,27.8c0,15.3,12.4,27.8,27.8,27.8c15.4,0,27.8-12.4,27.8-27.8
		C170.7,134.2,158.2,121.8,142.9,121.8z M143,172.4c-12.4,0-22.4-10.1-22.4-22.4c0-12.4,10.1-22.4,22.4-22.4
		c12.4,0,22.4,10.1,22.4,22.4C165.5,162.3,155.4,172.4,143,172.4z"/>
</g>
</svg>
