<svg xmlns="http://www.w3.org/2000/svg" viewBox="0 0 270 270"><g fill="#58595B"><path d="M198.3 141.3c0-7.6-4.5-13.3-12.8-13.3s-15 .5-15 9.8c0 5.8.2 8.4.2 8.4h-18.1v-7.3h-6l.1 54.4h33c2.8 2.9 5.3 4.1 11.3 4 21-.5 7.3-48.4 7.3-56zm-14.1-7.4c4.6 0 8.3 2.6 8.3 5.8 0 3.2-3.7 6.6-8.3 6.6-4.6 0-8.3-3.4-8.3-6.6 0-3.2 3.7-5.8 8.3-5.8zm-9.1 24.9h6.4v6.8h-6.4v-6.8zm9.6.1h6.4v6.8h-6.4v-6.8zm-19.2-.1h6.4v6.8h-6.4v-6.8zm-9.7.1h6.4v6.8h-6.4v-6.8zm40 28.1h-40v-18.4h40V187zM96.4 80.2h66.2v25.5H96.4zM160.5 74.2h-2.9v-6.9h-55.5v6.9h-6v4.3h64.4M97.8 107.3h63.1v3.5H97.8zM100.5 112.9h59v3.5h-59z"/><path d="M175.9 159.6h4.8v5.1h-4.8zM185.6 159.7h4.8v5.1h-4.8zM156.6 159.7h4.8v5.1h-4.8zM166.4 159.6h4.8v5.1h-4.8zM97.8 167.2c-4.3 0-7.9 3.5-7.9 7.9 0 4.3 3.5 7.9 7.9 7.9 4.3 0 7.9-3.5 7.9-7.9 0-4.3-3.5-7.9-7.9-7.9zm0 12.2c-2.4 0-4.3-1.9-4.3-4.3s1.9-4.3 4.3-4.3 4.3 1.9 4.3 4.3-1.9 4.3-4.3 4.3zM184.2 144.1c3.8 0 6.9-2 6.9-4.4 0-2.4-3.1-4.4-6.9-4.4-3.8 0-6.9 2-6.9 4.4 0 2.4 3.1 4.4 6.9 4.4zm0-6.8c2 0 3.6 1.1 3.6 2.4 0 1.3-1.6 2.4-3.6 2.4s-3.6-1.1-3.6-2.4c0-1.3 1.6-2.4 3.6-2.4zM100.7 118.8h58.8v12h-58.8zM100.5 132.1h58.8v5h-58.8zM115.3 138.7l-.2 54.5H145l-.1-54.4-29.6-.1zm11.2 48.2H120v-23.5h6.4v23.5zm14.7 0h-6.8v-23.5h6.8v23.5z"/><path d="M108 146.1l-11.4.1.1 5.1s-14.3-1.2-14.3 21.1c0 7.3-2.1 20.8 9.9 20.8h21.2l.2-54.5h-5.8l.1 7.4zm-10.2 39.4c-5.7 0-10.3-4.6-10.3-10.3 0-5.7 4.6-10.3 10.3-10.3 5.7 0 10.3 4.6 10.3 10.3.1 5.6-4.6 10.3-10.3 10.3z"/></g></svg>