<?xml version="1.0" encoding="utf-8"?>
<!-- Generator: Adobe Illustrator 18.1.1, SVG Export Plug-In . SVG Version: 6.00 Build 0)  -->
<svg version="1.1" id="Слой_1" xmlns="http://www.w3.org/2000/svg" xmlns:xlink="http://www.w3.org/1999/xlink" x="0px" y="0px"
	 viewBox="0 0 270 270" enable-background="new 0 0 270 270" xml:space="preserve">
<g>
	<path fill="#58595B" d="M176.5,99.1c-16.4,0-29.8,13.3-29.8,29.8c0,16.4,13.3,29.8,29.8,29.8c16.4,0,29.8-13.3,29.8-29.8
		C206.3,112.4,192.9,99.1,176.5,99.1z M176.5,154.7c-14.3,0-25.9-11.6-25.9-25.9c0-14.3,11.6-25.9,25.9-25.9
		c14.3,0,25.9,11.6,25.9,25.9C202.4,143.1,190.8,154.7,176.5,154.7z"/>
	<path fill="#58595B" d="M176.5,106.1c-12.6,0-22.8,10.2-22.8,22.8c0,12.6,10.2,22.8,22.8,22.8c12.6,0,22.8-10.2,22.8-22.8
		C199.3,116.3,189.1,106.1,176.5,106.1z M176.5,149.7c-11.5,0-20.8-9.3-20.8-20.8s9.3-20.8,20.8-20.8c11.5,0,20.8,9.3,20.8,20.8
		S188,149.7,176.5,149.7z"/>
	<path fill="#58595B" d="M113,68.3H97.8V74h-7.2v-5.1H75.5V74H64.6c-2.9,0-5.2,2.3-5.2,5.2v5c-3.7,0.6-8.2,4-11.3,16.5l-0.8-0.1
		c-1.3-0.2-2.6,0.7-2.9,2l-0.1,0.8c-0.2,1.1,0.4,2.2,1.4,2.7c0.3,0.3,0.7,0.6,1.1,0.7c-0.2,1.1-0.4,2.3-0.6,3.6l-0.3,0
		c-1.4-0.2-2.6,0.8-2.8,2.1l-0.1,0.8c-0.2,1.4,0.8,2.6,2.1,2.8l0.3,0c-0.5,4.7-0.8,10-1,16.2c-1.4,44,1.6,42.5,14.7,48.8
		c13.1,6.3,20.2,7.8,24.6,7.8c4.4,0,6.7-4.6,1.1-7.2c-5.5-2.7-31.3,0.3-33.2-17.9c0-14.8-0.8-29.9,0.2-41.9c0.1-1.7,0.3-3.3,0.5-4.9
		l0.3,0c1.4,0.2,2.6-0.8,2.8-2.1l0.1-0.8c0.2-1.4-0.8-2.6-2.1-2.8l-0.3,0c0.2-1.1,0.3-2.2,0.5-3.3l0.8,0.1c1.3,0.2,2.6-0.7,2.9-2
		l0.1-0.8c0.2-1.1-0.4-2.2-1.4-2.7c-0.3-0.3-0.7-0.6-1.1-0.7c1.3-5.6,2.9-9.4,4.5-11.1v75.1c0,2.9,2.3,5.2,5.2,5.2h49.9V74H113V68.3
		z"/>
	<path fill="#58595B" d="M220.2,74h-68.9v-7.1h-27.6V74h-6.2v97.2h102.7c2.9,0,5.2-2.3,5.2-5.2V79.1C225.4,76.3,223.1,74,220.2,74z
		 M176.5,164.9c-19.9,0-36.1-16.2-36.1-36.1c0-19.9,16.2-36.1,36.1-36.1c19.9,0,36.1,16.2,36.1,36.1
		C212.6,148.8,196.5,164.9,176.5,164.9z M209.1,100.7c-2.3,0-4.1-1.9-4.1-4.1c0-2.3,1.9-4.1,4.1-4.1c2.3,0,4.1,1.9,4.1,4.1
		C213.3,98.8,211.4,100.7,209.1,100.7z M219.1,88.5h-35.5v-8.8h35.5V88.5z"/>
</g>
</svg>
