<?xml version="1.0" encoding="utf-8"?>
<!-- Generator: Adobe Illustrator 18.1.1, SVG Export Plug-In . SVG Version: 6.00 Build 0)  -->
<svg version="1.1" id="Слой_1" xmlns="http://www.w3.org/2000/svg" xmlns:xlink="http://www.w3.org/1999/xlink" x="0px" y="0px"
	 viewBox="0 0 270 270" enable-background="new 0 0 270 270" xml:space="preserve">
<g>
	<circle fill="#58595B" cx="103.2" cy="162.7" r="2.1"/>
	<path fill="#58595B" d="M141.1,107.7c-16.4,0-29.7,13.3-29.7,29.7c0,16.4,13.3,29.7,29.7,29.7c16.4,0,29.7-13.3,29.7-29.7
		C170.8,121,157.5,107.7,141.1,107.7z M141.5,160.2c-12.5,0-22.6-10.1-22.6-22.6c0-12.5,10.1-22.6,22.6-22.6
		c12.5,0,22.6,10.1,22.6,22.6C164.1,150.1,154,160.2,141.5,160.2z"/>
	<path fill="#58595B" d="M209,91.1v-2.7h6.5V77.3h-20.7v11.2h5.9v2.7l-10.3,0V77.2l-63.9,0v7.5h-6v-1.8h3.2v-5.5h-10.3v5.5h2.9v1.8
		H109v5.1c0,0-5.5,0-12.8,0v-2.5h5.7v-9.8H83.7v9.8h5.2v2.5c-4.1,0-8.3,0-12.1,0v-2.5h5.7v-9.8H64.2v9.8h5.2v2.5c-2.4,0-4.2,0-5.2,0
		v73.5c0,7,5.6,12.7,12.5,12.7h126.3c6.9,0,12.5-5.7,12.5-12.7V91.1L209,91.1z M70.9,99.4c-1.8,0-3.2-1.4-3.2-3.2
		c0-1.8,1.4-3.2,3.2-3.2c1.8,0,3.2,1.4,3.2,3.2C74.1,97.9,72.6,99.4,70.9,99.4z M80.9,99.5c-1.8,0-3.2-1.4-3.2-3.2
		c0-1.8,1.4-3.2,3.2-3.2c1.8,0,3.2,1.4,3.2,3.2C84.1,98.1,82.6,99.5,80.9,99.5z M90.6,99.6c-1.8,0-3.2-1.4-3.2-3.2
		c0-1.8,1.4-3.2,3.2-3.2c1.8,0,3.2,1.4,3.2,3.2C93.8,98.2,92.4,99.6,90.6,99.6z M200.9,94.7c1.8,0,3.2,1.4,3.2,3.2
		c0,1.8-1.4,3.2-3.2,3.2c-1.8,0-3.2-1.4-3.2-3.2C197.7,96.1,199.1,94.7,200.9,94.7z M133.3,82.2H154v9.2h-20.7V82.2z M141.1,175
		c-12.2,0-23-5.8-29.8-14.7l-9,6.9l-3.7-4.8l9.4-7.2c-2.8-5.3-4.4-11.3-4.4-17.7c0-20.7,16.8-37.5,37.5-37.5
		c20.7,0,37.5,16.8,37.5,37.5C178.6,158.2,161.8,175,141.1,175z M182.8,91.4h-20.7v-9.2h20.7V91.4z M210,160.7h-20.7v-9.2H210V160.7
		z M210.5,100.9c-1.8,0-3.2-1.4-3.2-3.2c0-1.8,1.4-3.2,3.2-3.2c1.8,0,3.2,1.4,3.2,3.2C213.7,99.5,212.3,100.9,210.5,100.9z"/>
</g>
</svg>
