<?xml version="1.0" encoding="utf-8"?>
<!-- Generator: Adobe Illustrator 18.1.1, SVG Export Plug-In . SVG Version: 6.00 Build 0)  -->
<svg version="1.1" id="Слой_1" xmlns="http://www.w3.org/2000/svg" xmlns:xlink="http://www.w3.org/1999/xlink" x="0px" y="0px"
	 viewBox="0 0 270 270" enable-background="new 0 0 270 270" xml:space="preserve">
<g>
	<path fill="#58595B" d="M189.3,109l-6,0v-3h2v-5.6H176v5.6h2.3v3.1l-7,0v-3.3h2v-5.5h-9.3v5.5h2.3v3.3l-4.7,0l-2.3-8.9l-8,0v-9.9
		h6.5v-8.5h-3.1v-5.4l11.4-14.8V39.9h-27.7v0h-27.7v21.9l11.4,14.8v5.4h-3.1v8.5h6.5v10l-5.9,0l-2.8,8.7l-3.4,0v-2.9h2v-5.6h-9.3
		v5.6h2.3v2.9l-11.6,0v-3.1h4.9v-5.4H81.8v5.4h5v3.1l-6.1,0c-4.5,0-8.1,3.6-8.1,8.1v59.6c0,4.5,3.6,8.1,8.1,8.1h39.5
		c5.3,3.9,11.8,6.2,18.8,6.2c7.1,0,13.6-2.3,18.8-6.2h31.5c4.5,0,8.1-3.6,8.1-8.1V117C197.3,112.6,193.7,109,189.3,109z M117.2,57.9
		V44.5h43v13.4H117.2z M97.4,171.5h-6.3v-47.7h6.3V171.5z M139.9,180.9c-16.5,0-29.9-13.4-29.9-29.9c0-16.5,13.4-29.9,29.9-29.9
		s29.9,13.4,29.9,29.9C169.8,167.6,156.4,180.9,139.9,180.9z M168.2,123.4c-1.9,0-3.5-1.6-3.5-3.5c0-1.9,1.6-3.5,3.5-3.5
		s3.5,1.6,3.5,3.5C171.7,121.9,170.1,123.4,168.2,123.4z M175.1,115.7h17.7v8.4h-17.7V115.7z M175.3,159.2h17.5v6.8h-17.5V159.2z
		 M193,175.2h-17.5v-6.8H193V175.2z"/>
	<path fill="#58595B" d="M139.9,127.6c-13,0-23.5,10.6-23.5,23.5c0,13,10.6,23.5,23.5,23.5c13,0,23.5-10.6,23.5-23.5
		C163.4,138.1,152.9,127.6,139.9,127.6z M139.9,170.2c-10.5,0-19.1-8.6-19.1-19.1c0-10.5,8.6-19.1,19.1-19.1
		c10.5,0,19.1,8.6,19.1,19.1C159,161.6,150.4,170.2,139.9,170.2z"/>
	<path fill="#58595B" d="M139.9,133.8c-9.5,0-17.3,7.8-17.3,17.3c0,9.5,7.7,17.3,17.3,17.3c9.5,0,17.3-7.8,17.3-17.3
		C157.2,141.6,149.4,133.8,139.9,133.8z M139.9,166.1c-8.3,0-15.1-6.8-15.1-15.1c0-8.3,6.8-15.1,15.1-15.1c8.3,0,15.1,6.8,15.1,15.1
		C155,159.4,148.2,166.1,139.9,166.1z"/>
</g>
</svg>
