<?xml version="1.0" encoding="UTF-8"?>
<!DOCTYPE svg PUBLIC "-//W3C//DTD SVG 1.1//EN" "http://www.w3.org/Graphics/SVG/1.1/DTD/svg11.dtd">
<!-- Creator: CorelDRAW X6 -->
<svg xmlns="http://www.w3.org/2000/svg" xml:space="preserve" width="1181px" height="1181px" version="1.1" style="shape-rendering:geometricPrecision; text-rendering:geometricPrecision; image-rendering:optimizeQuality; fill-rule:evenodd; clip-rule:evenodd"
viewBox="0 0 1181 1181"
 xmlns:xlink="http://www.w3.org/1999/xlink">
 <defs>
  <style type="text/css">
   <![CDATA[
    .str4 {stroke:#545453;stroke-width:0.899922}
    .str3 {stroke:#2B2A29;stroke-width:2.362}
    .str1 {stroke:#E31E24;stroke-width:2.362}
    .str2 {stroke:#4F4F4E;stroke-width:2.362}
    .str0 {stroke:#EBECEC;stroke-width:2.362}
    .fil3 {fill:#2B2A29}
    .fil1 {fill:#E31E24}
    .fil5 {fill:black}
    .fil2 {fill:#4F4F4E}
    .fil4 {fill:#F7F7F7}
    .fil0 {fill:#F9F9F9}
   ]]>
  </style>
 </defs>
 <g id="Layer_x0020_1">
  <metadata id="CorelCorpID_0Corel-Layer"/>
  <rect class="fil0 str0" x="111" y="261" width="958" height="692"/>
  <rect class="fil1 str1" x="104" y="569" width="973.518" height="25.5983"/>
  <rect class="fil2 str2" x="104" y="252" width="974" height="247"/>
  <rect class="fil1 str1" x="104" y="500" width="973.518" height="25.5983"/>
  <path class="fil3 str3" d="M140 229l902 0c32,0 59,32 59,72l0 612c0,40 -27,72 -59,72l-902 0c-32,0 -59,-32 -59,-72l0 -612c0,-40 27,-72 59,-72zm15 32l872 0c24,0 43,24 43,53l0 586c0,29 -19,53 -43,53l-872 0c-24,0 -43,-24 -43,-53l0 -586c0,-29 19,-53 43,-53z"/>
  <rect class="fil3 str3" x="223" y="196" width="112.633" height="64.7603" rx="15" ry="15"/>
  <g id="_226706928">
   <ellipse class="fil4 str4" cx="590" cy="656" rx="255" ry="248"/>
   <g>
    <path class="fil5 str4" d="M814 659c0,-13 0,-4 2,-7 0,13 0,4 -2,7zm-224 -258c141,0 255,114 255,255 0,141 -114,255 -255,255 -141,0 -255,-114 -255,-255 0,-141 114,-255 255,-255zm201 226c0,1 0,4 0,5 -1,4 -1,3 -2,5l2 -10zm-123 -71l-2 -2 2 2zm-2 -2l-2 -2 2 2zm-2 -2l-2 -2 2 2zm49 -7c9,2 10,5 20,7 -4,7 -4,8 -10,5l-5 -4c-5,-6 -3,0 -5,-8zm-52 5l0 0zm52 -5l0 0zm-56 -22c2,3 2,-5 2,7 -22,12 -28,0 -52,0 -1,13 2,4 -5,7 -2,-2 1,-1 -6,-4 -14,-6 -18,-1 -19,-18 8,2 3,1 9,1 8,0 13,7 18,-6 1,1 12,8 12,9 5,5 -3,6 13,6 -5,-8 -6,-3 -7,-15 20,13 23,2 34,12zm-52 -12l-2 -2 2 2zm-2 -2l-2 -2 2 2zm-2 -2c-9,-2 -6,-1 -10,-7 9,2 6,1 10,7zm-22 10c-20,0 -34,2 -52,2l0 -2c12,0 10,0 17,-5 9,-7 25,-29 44,0 -12,-3 -11,0 -12,-10l-7 0 -3 10c14,7 4,-7 13,5zm12 -17l0 0zm-44 -22c3,-3 9,4 3,1 0,0 -7,3 -3,-1zm15 -5l0 0zm37 -7l0 0zm0 0l0 -12c13,7 6,6 0,12zm-37 7c-3,-13 -3,-7 0,-20 -9,1 -8,1 -14,6l-4 3c-11,8 -8,4 -14,16 1,0 7,-1 8,-1l7 15c-18,0 -13,-4 -32,0 -3,7 -5,12 -5,22 6,1 6,2 12,2l0 5c-14,1 -12,8 -19,18 -8,10 -15,8 -23,16 -8,8 -24,41 -18,58 1,2 13,24 14,25 21,21 55,-4 70,4l20 9c0,36 2,18 13,41 12,26 4,17 -2,39 -2,10 15,50 20,58 6,9 5,10 8,21 45,0 50,-22 65,-38l23 -44c5,-12 7,-18 5,-35 -1,-9 -2,-14 4,-22 9,-13 26,-18 31,-24 4,-5 11,-26 11,-33 -11,0 -17,4 -28,1 -14,-5 -22,-22 -31,-36 -5,-7 -11,-13 -13,-22 8,6 13,14 19,22 13,17 7,12 15,27 29,0 32,-3 49,-15 0,-31 -3,-19 -15,-37 18,4 29,-3 29,17l5 0c2,-8 4,-7 5,-15 1,-6 0,-16 0,-22 4,5 6,5 7,12l2 5c2,2 1,1 4,6 3,5 2,4 3,9l2 5c3,3 2,-4 2,7l2 5c3,3 2,-4 2,7l4 9c1,4 2,6 2,10 2,7 3,14 4,21 -8,-8 -7,-4 -7,-20l-5 0c0,12 0,10 -10,12l-1 -16c-1,-8 0,-7 -9,-9 -4,19 0,25 0,47 9,-2 9,-3 10,12 -11,1 -4,-3 -10,5l10 7c0,0 1,1 1,1 7,6 -2,1 6,7 3,-6 6,-8 7,-15 -15,-4 -12,5 -12,-12 7,-3 5,2 5,-12 0,-13 -6,-7 3,-10 0,0 1,-10 8,15 4,15 0,10 0,25l5 -7c0,76 -36,137 -88,177 -56,43 -142,59 -210,33 -23,-9 -77,-38 -93,-62 -4,-6 -2,-4 -2,-7l1 -7c1,-11 0,-7 2,-17 5,-26 -13,-10 1,-51l12 -33c4,-19 -12,-24 -23,-28 -6,-2 -4,-1 -8,-4 -10,-7 -10,-4 -13,-13 -11,-39 -25,-29 -17,-55 9,-31 29,-62 49,-86 36,-43 114,-77 170,-73 8,1 14,1 23,1 -8,10 -17,6 -30,11 -4,2 -10,4 -12,8 -7,13 4,-5 0,13 -8,2 -7,3 -15,5z"/>
    <path class="fil5 str4" d="M703 732c0,23 -11,47 0,47 15,0 12,-7 23,-29 6,-11 11,-27 11,-43 -20,0 -1,2 -34,25z"/>
    <path class="fil5 str4" d="M789 570l1 1c0,0 -1,0 -1,-1zm15 20c-3,-3 -2,4 -2,-7l-2 -5c-3,-3 -2,4 -2,-7l-2 -5 -7 -5 0 -9 -2 -5 -5 0c0,15 5,30 17,37 -5,10 0,11 2,20l5 0c-2,-10 -2,-3 0,-12z"/>
    <path class="fil5 str4" d="M657 521l-12 0 0 5c13,0 7,2 12,-5z"/>
   </g>
  </g>
 </g>
</svg>
